HIERARCHY
ROOT Hips
{
    OFFSET 0.000000 0.000000 0.000000
    CHANNELS 6 Xposition Yposition Zposition Zrotation Xrotation Yrotation
    JOINT Spine
    {
        OFFSET -0.000000 14.517291 0.000000
        CHANNELS 3 Zrotation Xrotation Yrotation
        JOINT Spine1
        {
            OFFSET -0.000000 37.558300 0.000000
            CHANNELS 3 Zrotation Xrotation Yrotation
            JOINT Neck
            {
                OFFSET -0.000000 37.404057 3.400369
                CHANNELS 3 Zrotation Xrotation Yrotation
                JOINT Head
                {
                    OFFSET -0.000000 24.785618 -3.540803
                    CHANNELS 3 Zrotation Xrotation Yrotation
                    End Site
                    {
                        OFFSET -0.000000 35.408028 0.000000
                    }
                }
            }
            JOINT LeftShoulder
            {
                OFFSET 6.992933 33.973492 -0.192664
                CHANNELS 3 Zrotation Xrotation Yrotation
                JOINT LeftArm
                {
                    OFFSET 21.527611 0.000000 0.000000
                    CHANNELS 3 Zrotation Xrotation Yrotation
                    JOINT LeftForeArm
                    {
                        OFFSET 56.353916 0.000000 0.000000
                        CHANNELS 3 Zrotation Xrotation Yrotation
                        JOINT LeftHand
                        {
                            OFFSET 47.774071 0.000000 0.000000
                            CHANNELS 3 Zrotation Xrotation Yrotation
                            End Site
                            {
                                OFFSET 26.556021 0.000000 0.000000
                            }
                        }
                    }
                }
            }
            JOINT RightShoulder
            {
                OFFSET -7.065357 33.973492 -0.192664
                CHANNELS 3 Zrotation Xrotation Yrotation
                JOINT RightArm
                {
                    OFFSET -21.527611 0.000000 0.000000
                    CHANNELS 3 Zrotation Xrotation Yrotation
                    JOINT RightForeArm
                    {
                        OFFSET -56.353916 0.000000 0.000000
                        CHANNELS 3 Zrotation Xrotation Yrotation
                        JOINT RightHand
                        {
                            OFFSET -47.774071 0.000000 0.000000
                            CHANNELS 3 Zrotation Xrotation Yrotation
                            End Site
                            {
                                OFFSET -26.556021 0.000000 0.000000
                            }
                        }
                    }
                }
            }
        }
    }
    JOINT LeftUpLeg
    {
        OFFSET 17.704014 0.000000 0.000000
        CHANNELS 3 Zrotation Xrotation Yrotation
        JOINT LeftLeg
        {
            OFFSET -0.000000 -81.181816 0.000000
            CHANNELS 3 Zrotation Xrotation Yrotation
            JOINT LeftFoot
            {
                OFFSET -0.000000 -62.821102 0.000000
                CHANNELS 3 Zrotation Xrotation Yrotation
                JOINT LeftToeBase
                {
                    OFFSET -0.000000 -11.507608 26.556021
                    CHANNELS 3 Zrotation Xrotation Yrotation
                    End Site
                    {
                        OFFSET -0.000000 0.000000 7.081605
                    }
                }
            }
        }
    }
    JOINT RightUpLeg
    {
        OFFSET -17.704014 0.000000 0.000000
        CHANNELS 3 Zrotation Xrotation Yrotation
        JOINT RightLeg
        {
            OFFSET -0.000000 -81.181816 0.000000
            CHANNELS 3 Zrotation Xrotation Yrotation
            JOINT RightFoot
            {
                OFFSET -0.000000 -62.821102 0.000000
                CHANNELS 3 Zrotation Xrotation Yrotation
                JOINT RightToeBase
                {
                    OFFSET -0.000000 -11.507608 26.556021
                    CHANNELS 3 Zrotation Xrotation Yrotation
                    End Site
                    {
                        OFFSET -0.000000 0.000000 7.081605
                    }
                }
            }
        }
    }
}
MOTION
Frames:    12
Frame Time:    0.008333
15.654105    149.700165    -34.466698    -3.076088    -1.792127    7.762590    0.545279    2.978944    6.656229    0.187067    0.329287    2.224431    -0.351761    2.032106    -9.438773    10.824840    -3.881687    -7.886340    0.569179    5.541423    -8.007442    -40.925789    19.120251    -45.377880    2.224602    -31.692049    -125.158173    -0.437023    -27.958916    -3.680563    -0.293418    13.368829    -0.085738    41.177071    12.442359    50.501587    -27.832523    -31.939468    60.185795    14.013305    -13.188021    30.645168    22.816586    -30.809494    -7.216606    -13.433572    30.294580    -18.751442    -12.688624    -6.823199    37.806053    0.000000    0.000000    0.000000    -10.364075    9.408134    -24.479162    2.891495    29.389803    -6.471276    14.678328    -26.132532    -5.476442    0.000000    0.000000    0.000000    
15.653114    149.696869    -34.488300    -3.071401    -1.784552    7.745223    0.559049    2.992144    6.666857    0.167593    0.311151    2.228199    -0.351995    2.021483    -9.448232    10.835464    -3.869253    -7.895437    0.566652    5.541826    -8.002623    -40.925777    19.117903    -45.360439    2.235424    -31.687166    -125.150711    -0.442484    -27.935642    -3.685803    -0.290605    13.382529    -0.092032    41.153614    12.459298    50.546986    -27.859844    -31.966076    60.139923    14.022409    -13.212285    30.662916    22.815222    -30.810293    -7.207705    -13.425739    30.283463    -18.739273    -12.694924    -6.820843    37.802803    0.000000    0.000000    0.000000    -10.384192    9.377706    -24.464722    2.901932    29.423294    -6.479664    14.675890    -26.143240    -5.463304    0.000000    0.000000    0.000000    
15.649569    149.692886    -34.504391    -3.062891    -1.787396    7.726900    0.560235    3.006549    6.674196    0.168880    0.301825    2.230695    -0.356421    2.025141    -9.452702    10.840326    -3.875962    -7.898057    0.551814    5.537132    -7.995896    -40.925632    19.116684    -45.336338    2.236794    -31.681995    -125.145424    -0.441705    -27.928450    -3.692557    -0.302252    13.375015    -0.081034    41.154026    12.458892    50.569107    -27.861950    -31.957216    60.116302    14.046268    -13.201642    30.667139    22.814825    -30.794764    -7.200365    -13.422252    30.265009    -18.735523    -12.701892    -6.821442    37.802559    0.000000    0.000000    0.000000    -10.406535    9.360382    -24.455641    2.905179    29.458807    -6.439909    14.658069    -26.172960    -5.475225    0.000000    0.000000    0.000000    
15.645111    149.687958    -34.525547    -3.060309    -1.780035    7.708357    0.565748    3.014254    6.681796    0.166832    0.293204    2.233298    -0.363143    2.007481    -9.461025    10.848745    -3.858244    -7.905992    0.537643    5.499543    -8.019965    -40.964020    19.093237    -45.256557    2.205866    -31.614874    -125.182404    -0.383474    -27.910244    -3.638887    -0.305019    13.368020    -0.076055    41.143215    12.457579    50.598316    -27.862455    -31.949364    60.095627    14.039038    -13.202412    30.657230    22.822794    -30.797752    -7.180383    -13.418782    30.261036    -18.746038    -12.717754    -6.833086    37.816914    0.000000    0.000000    0.000000    -10.423969    9.330180    -24.438385    2.920985    29.491127    -6.464252    14.651754    -26.182487    -5.455576    0.000000    0.000000    0.000000    
15.639290    149.686188    -34.543438    -3.058960    -1.776850    7.692495    0.573789    3.015900    6.687346    0.171017    0.293561    2.235224    -0.379161    2.002903    -9.472296    10.859517    -3.848355    -7.914672    0.527005    5.504229    -8.019876    -40.960388    19.103067    -45.239189    2.221300    -31.643667    -125.171997    -0.399519    -27.914259    -3.643093    -0.322760    13.369143    -0.070535    41.124702    12.483311    50.648567    -27.904064    -31.974327    60.035938    14.054656    -13.216539    30.692177    22.828535    -30.793682    -7.173245    -13.416076    30.247059    -18.738750    -12.724095    -6.819993    37.819790    0.000000    0.000000    0.000000    -10.434867    9.306568    -24.455080    2.913056    29.520077    -6.471885    14.686502    -26.182062    -5.404628    0.000000    0.000000    0.000000    
15.633747    149.684540    -34.563370    -3.055179    -1.770927    7.676819    0.578326    3.025765    6.691420    0.173526    0.280275    2.236632    -0.383068    2.006603    -9.483324    10.857032    -3.846036    -7.926344    0.511806    5.502940    -8.016350    -40.967556    19.103600    -45.212334    2.209064    -31.629759    -125.176170    -0.402562    -27.920124    -3.649668    -0.330977    13.377201    -0.069786    41.112560    12.480230    50.703396    -27.911816    -31.970800    60.007774    14.055573    -13.217368    30.687140    22.830153    -30.793583    -7.172129    -13.411236    30.236137    -18.727793    -12.734580    -6.815957    37.819092    0.000000    0.000000    0.000000    -10.451719    9.278915    -24.450943    2.918351    29.553896    -6.461095    14.676183    -26.194134    -5.396928    0.000000    0.000000    0.000000    
15.625587    149.681900    -34.581448    -3.051403    -1.767767    7.664297    0.588653    3.030453    6.688930    0.166047    0.279876    2.235937    -0.407820    2.013085    -9.492782    10.893525    -3.848136    -7.926417    0.499319    5.499391    -8.008282    -40.964516    19.108072    -45.186836    2.196026    -31.628435    -125.183159    -0.411754    -27.940115    -3.642179    -0.345315    13.371233    -0.050544    41.124947    12.463954    50.734623    -27.893955    -31.944618    60.009106    14.066494    -13.194411    30.690336    22.837044    -30.794020    -7.177872    -13.430483    30.223143    -18.689085    -12.729156    -6.798037    37.820576    0.000000    0.000000    0.000000    -10.464804    9.254633    -24.473385    2.898329    29.590593    -6.408267    14.669201    -26.207014    -5.382865    0.000000    0.000000    0.000000    
15.618658    149.679474    -34.600708    -3.046579    -1.759683    7.649588    0.599088    3.029602    6.693738    0.152196    0.278346    2.237669    -0.411439    2.013846    -9.498115    10.900888    -3.845036    -7.930509    0.497921    5.508892    -8.016116    -40.968594    19.106590    -45.168995    2.206463    -31.646090    -125.173462    -0.429641    -27.940960    -3.639127    -0.346911    13.380453    -0.043105    41.109913    12.461393    50.782082    -27.907684    -31.948624    59.976402    14.068023    -13.196865    30.721895    22.839214    -30.797544    -7.186073    -13.432755    30.209301    -18.674053    -12.744341    -6.794206    37.833565    0.000000    0.000000    0.000000    -10.484171    9.224328    -24.458361    2.912767    29.628633    -6.417392    14.671759    -26.219231    -5.359415    0.000000    0.000000    0.000000    
15.611386    149.674149    -34.617535    -3.039719    -1.754081    7.637206    0.607373    3.033171    6.694422    0.143727    0.275307    2.238014    -0.427692    2.003480    -9.502291    10.917281    -3.823535    -7.931832    0.486153    5.509680    -8.013676    -40.965595    19.125881    -45.154526    2.220172    -31.679096    -125.159309    -0.425193    -27.953167    -3.635618    -0.357738    13.382700    -0.037539    41.101635    12.464787    50.830826    -27.915007    -31.946863    59.958191    14.078695    -13.190710    30.743366    22.839706    -30.799749    -7.198096    -13.440626    30.199547    -18.666872    -12.754477    -6.796980    37.858398    0.000000    0.000000    0.000000    -10.502048    9.195021    -24.485559    2.899068    29.669365    -6.375856    14.650298    -26.240635    -5.367416    0.000000    0.000000    0.000000    
15.603796    149.668533    -34.639893    -3.036720    -1.735745    7.628529    0.620345    3.026799    6.697674    0.127348    0.269591    2.239251    -0.424582    2.005961    -9.508310    10.912803    -3.823088    -7.939363    0.483714    5.517461    -8.015628    -40.961933    19.133049    -45.150894    2.227979    -31.685806    -125.141479    -0.417947    -27.948441    -3.647514    -0.361625    13.379112    -0.039570    41.086308    12.478826    50.876934    -27.933771    -31.952599    59.933334    14.059140    -13.199227    30.743696    22.841686    -30.820498    -7.207044    -13.448798    30.192444    -18.641577    -12.752865    -6.784587    37.865780    0.000000    0.000000    0.000000    -10.520036    9.145663    -24.475058    2.905214    29.728374    -6.352506    14.648037    -26.266642    -5.383139    0.000000    0.000000    0.000000    
15.597627    149.661530    -34.656136    -3.027067    -1.734207    7.613200    0.629791    3.036031    6.700407    0.112068    0.268328    2.240268    -0.436566    2.006110    -9.515214    10.921139    -3.819211    -7.943916    0.477846    5.518779    -8.010977    -40.974564    19.126677    -45.140274    2.212142    -31.659470    -125.148247    -0.395397    -27.948132    -3.618587    -0.367462    13.376746    -0.039172    41.071762    12.488384    50.928440    -27.954052    -31.940588    59.906555    14.072602    -13.177776    30.747055    22.837084    -30.818712    -7.224053    -13.451450    30.185905    -18.610205    -12.773613    -6.785373    37.862720    0.000000    0.000000    0.000000    -10.546686    9.115204    -24.447893    2.927615    29.783262    -6.361523    14.638299    -26.285755    -5.389482    0.000000    0.000000    0.000000    
15.590672    149.653519    -34.673576    -3.018106    -1.723239    7.599340    0.637038    3.040235    6.703889    0.097208    0.252384    2.241579    -0.437801    1.991769    -9.515310    10.908222    -3.779387    -7.949761    0.471375    5.529846    -8.005751    -40.970375    19.136427    -45.135956    2.219946    -31.672358    -125.133774    -0.430888    -27.948359    -3.635662    -0.372426    13.381220    -0.031221    41.044659    12.512918    50.967094    -27.981188    -31.969349    59.883316    14.061788    -13.203233    30.760225    22.834570    -30.825453    -7.222677    -13.451929    30.179943    -18.600832    -12.775633    -6.787596    37.869633    0.000000    0.000000    0.000000    -10.556656    9.121325    -24.434811    2.929455    29.847609    -6.371903    14.666072    -26.386494    -5.306783    0.000000    0.000000    0.000000    
